<svg viewBox="0 0 48 48" width="100%" height="100%" fill="none" xmlns="http://www.w3.org/2000/svg">
<circle cx="24" cy="24" r="24" fill="#FFF5CE"/>
<path d="M24 0C10.75 0 0 10.75 0 24C0 37.25 10.75 48 24 48C37.25 48 48 37.25 48 24C48 10.75 37.25 0 24 0ZM34.69 34H13.31C12.38 34 11.62 33.19 11.62 32.2C11.62 31.21 12.38 30.4 13.31 30.4H34.68C35.61 30.4 36.37 31.21 36.37 32.2C36.37 33.19 35.61 34 34.68 34H34.69ZM34.69 25.91H13.31C12.38 25.91 11.62 25.1 11.62 24.11C11.62 23.12 12.38 22.31 13.31 22.31H34.68C35.61 22.31 36.37 23.12 36.37 24.11C36.37 25.1 35.61 25.91 34.68 25.91H34.69ZM34.69 17.82H13.31C12.38 17.82 11.62 17.01 11.62 16.02C11.62 15.03 12.38 14.22 13.31 14.22H34.68C35.61 14.22 36.37 15.03 36.37 16.02C36.37 17.01 35.61 17.82 34.68 17.82H34.69Z" fill="#40437C"/>
</svg>
