<svg width="48" height="48" viewBox="0 0 48 48" fill="none" xmlns="http://www.w3.org/2000/svg">
<circle cx="24" cy="24" r="24" fill="#FFF5CE"/>
<path fill-rule="evenodd" clip-rule="evenodd" d="M48 24C48 37.2548 37.2548 48 24 48C10.7452 48 0 37.2548 0 24C0 10.7452 10.7452 0 24 0C37.2548 0 48 10.7452 48 24ZM13.1318 34.9602C12.3507 34.1791 12.3507 32.9128 13.1318 32.1317L21.2635 24L13.1318 15.8683C12.3507 15.0872 12.3507 13.8209 13.1318 13.0398C13.9128 12.2588 15.1792 12.2588 15.9602 13.0398L24.0919 21.1716L32.2237 13.0398C33.0047 12.2588 34.271 12.2588 35.0521 13.0398C35.8331 13.8209 35.8331 15.0872 35.0521 15.8683L26.9204 24L35.0521 32.1317C35.8331 32.9128 35.8331 34.1791 35.0521 34.9602C34.271 35.7412 33.0047 35.7412 32.2237 34.9602L24.0919 26.8284L15.9602 34.9602C15.1792 35.7412 13.9128 35.7412 13.1318 34.9602Z" fill="#40437C"/>
</svg>
