<svg width="60" height="60" viewBox="0 0 60 60" fill="none" xmlns="http://www.w3.org/2000/svg">
<circle cx="30" cy="30" r="30" fill="#40437C"/>
<path d="M38.05 19.185C36.8538 17.8193 36.1945 16.0655 36.195 14.25H30.7875V35.95C30.7458 37.1243 30.2501 38.2366 29.4046 39.0526C28.5592 39.8687 27.4301 40.3248 26.255 40.325C23.77 40.325 21.705 38.295 21.705 35.775C21.705 32.765 24.61 30.5075 27.6025 31.435V25.905C21.565 25.1 16.28 29.79 16.28 35.775C16.28 41.6025 21.11 45.75 26.2375 45.75C31.7325 45.75 36.195 41.2875 36.195 35.775V24.7675C38.3878 26.3422 41.0204 27.1871 43.72 27.1825V21.775C43.72 21.775 40.43 21.9325 38.05 19.185Z" fill="#FFF5CE"/>
</svg>
