<svg width="60" height="60" viewBox="0 0 60 60" fill="none" xmlns="http://www.w3.org/2000/svg">
<circle cx="30" cy="30" r="30" fill="#FFF5CE"/>
<path d="M22.65 12.5H37.35C42.95 12.5 47.5 17.05 47.5 22.65V37.35C47.5 40.0419 46.4306 42.6236 44.5271 44.5271C42.6236 46.4306 40.0419 47.5 37.35 47.5H22.65C17.05 47.5 12.5 42.95 12.5 37.35V22.65C12.5 19.9581 13.5694 17.3764 15.4729 15.4729C17.3764 13.5694 19.9581 12.5 22.65 12.5ZM22.3 16C20.6291 16 19.0267 16.6637 17.8452 17.8452C16.6637 19.0267 16 20.6291 16 22.3V37.7C16 41.1825 18.8175 44 22.3 44H37.7C39.3709 44 40.9733 43.3363 42.1548 42.1548C43.3363 40.9733 44 39.3709 44 37.7V22.3C44 18.8175 41.1825 16 37.7 16H22.3ZM39.1875 18.625C39.7677 18.625 40.3241 18.8555 40.7343 19.2657C41.1445 19.6759 41.375 20.2323 41.375 20.8125C41.375 21.3927 41.1445 21.9491 40.7343 22.3593C40.3241 22.7695 39.7677 23 39.1875 23C38.6073 23 38.0509 22.7695 37.6407 22.3593C37.2305 21.9491 37 21.3927 37 20.8125C37 20.2323 37.2305 19.6759 37.6407 19.2657C38.0509 18.8555 38.6073 18.625 39.1875 18.625ZM30 21.25C32.3206 21.25 34.5462 22.1719 36.1872 23.8128C37.8281 25.4538 38.75 27.6794 38.75 30C38.75 32.3206 37.8281 34.5462 36.1872 36.1872C34.5462 37.8281 32.3206 38.75 30 38.75C27.6794 38.75 25.4538 37.8281 23.8128 36.1872C22.1719 34.5462 21.25 32.3206 21.25 30C21.25 27.6794 22.1719 25.4538 23.8128 23.8128C25.4538 22.1719 27.6794 21.25 30 21.25ZM30 24.75C28.6076 24.75 27.2723 25.3031 26.2877 26.2877C25.3031 27.2723 24.75 28.6076 24.75 30C24.75 31.3924 25.3031 32.7277 26.2877 33.7123C27.2723 34.6969 28.6076 35.25 30 35.25C31.3924 35.25 32.7277 34.6969 33.7123 33.7123C34.6969 32.7277 35.25 31.3924 35.25 30C35.25 28.6076 34.6969 27.2723 33.7123 26.2877C32.7277 25.3031 31.3924 24.75 30 24.75Z" fill="#40437C"/>
</svg>
