<svg width="60" height="60" viewBox="0 0 60 60" fill="none" xmlns="http://www.w3.org/2000/svg">
<path d="M26.2877 26.2877C27.2723 25.3031 28.6076 24.75 30 24.75C31.3924 24.75 32.7277 25.3031 33.7123 26.2877C34.6969 27.2723 35.25 28.6076 35.25 30C35.25 31.3924 34.6969 32.7277 33.7123 33.7123C32.7277 34.6969 31.3924 35.25 30 35.25C28.6076 35.25 27.2723 34.6969 26.2877 33.7123C25.3031 32.7277 24.75 31.3924 24.75 30C24.75 28.6076 25.3031 27.2723 26.2877 26.2877Z" fill="#FFF5CE"/>
<path fill-rule="evenodd" clip-rule="evenodd" d="M17.8452 17.8452C19.0267 16.6637 20.6291 16 22.3 16H37.7C41.1825 16 44 18.8175 44 22.3V37.7C44 39.3709 43.3363 40.9733 42.1548 42.1548C40.9733 43.3363 39.3709 44 37.7 44H22.3C18.8175 44 16 41.1825 16 37.7V22.3C16 20.6291 16.6637 19.0267 17.8452 17.8452ZM40.7343 19.2657C40.3241 18.8555 39.7677 18.625 39.1875 18.625C38.6073 18.625 38.0509 18.8555 37.6407 19.2657C37.2305 19.6759 37 20.2323 37 20.8125C37 21.3927 37.2305 21.9491 37.6407 22.3593C38.0509 22.7695 38.6073 23 39.1875 23C39.7677 23 40.3241 22.7695 40.7343 22.3593C41.1445 21.9491 41.375 21.3927 41.375 20.8125C41.375 20.2323 41.1445 19.6759 40.7343 19.2657ZM36.1872 23.8128C34.5462 22.1719 32.3206 21.25 30 21.25C27.6794 21.25 25.4538 22.1719 23.8128 23.8128C22.1719 25.4538 21.25 27.6794 21.25 30C21.25 32.3206 22.1719 34.5462 23.8128 36.1872C25.4538 37.8281 27.6794 38.75 30 38.75C32.3206 38.75 34.5462 37.8281 36.1872 36.1872C37.8281 34.5462 38.75 32.3206 38.75 30C38.75 27.6794 37.8281 25.4538 36.1872 23.8128Z" fill="#FFF5CE"/>
<path fill-rule="evenodd" clip-rule="evenodd" d="M30 60C46.5685 60 60 46.5685 60 30C60 13.4315 46.5685 0 30 0C13.4315 0 0 13.4315 0 30C0 46.5685 13.4315 60 30 60ZM47.5 22.65C47.5 17.05 42.95 12.5 37.35 12.5H22.65C19.9581 12.5 17.3764 13.5694 15.4729 15.4729C13.5694 17.3764 12.5 19.9581 12.5 22.65V37.35C12.5 42.95 17.05 47.5 22.65 47.5H37.35C40.042 47.5 42.6236 46.4306 44.5271 44.5271C46.4306 42.6236 47.5 40.042 47.5 37.35V22.65Z" fill="#FFF5CE"/>
</svg>
