<svg width="60" height="60" viewBox="0 0 60 60" fill="none" xmlns="http://www.w3.org/2000/svg">
<path fill-rule="evenodd" clip-rule="evenodd" d="M30 60C46.5685 60 60 46.5685 60 30C60 13.4315 46.5685 0 30 0C13.4315 0 0 13.4315 0 30C0 46.5685 13.4315 60 30 60ZM36.195 14.25C36.1945 16.0655 36.8538 17.8193 38.05 19.185C40.43 21.9325 43.72 21.775 43.72 21.775V27.1825C41.0204 27.1871 38.3878 26.3422 36.195 24.7675V35.775C36.195 41.2875 31.7325 45.75 26.2375 45.75C21.11 45.75 16.28 41.6025 16.28 35.775C16.28 29.79 21.565 25.1 27.6025 25.905V31.435C24.61 30.5075 21.705 32.765 21.705 35.775C21.705 38.295 23.77 40.325 26.255 40.325C27.4301 40.3248 28.5592 39.8687 29.4046 39.0526C30.2501 38.2366 30.7458 37.1243 30.7875 35.95V14.25H36.195Z" fill="#FFF5CE"/>
</svg>
