<svg width="545" height="359" viewBox="0 0 545 359" fill="none" xmlns="http://www.w3.org/2000/svg">
<path d="M389.58 139.265C421.333 143.958 520.161 197.154 533.499 207.183C543 166 547.921 148.425 542.999 123.925C539.919 108.592 495.499 82.7116 475.999 75.3969C436.403 60.5437 364.366 60.3953 349.99 62.357C335.615 64.3187 297.153 82.5931 281.384 85.3015C265.615 88.01 227.671 94.5271 221.573 91.5159C215.475 88.5046 201.339 88.9033 192.23 91.9898C183.121 95.0763 173.888 106.301 162.061 108.333C150.234 110.364 143.166 110.563 138.293 105.82C133.419 101.076 129.586 90.5735 123.428 75.3969C117.27 60.2203 124.133 35.1974 124.92 27.9598C125.549 22.1698 138.627 7.34189 145.088 0.651685L135.471 0.781461C133.346 3.17579 127.409 9.3702 120.663 14.9932C112.231 22.022 110.52 41.5941 108.509 50.5639C106.901 57.7398 112.24 79.1787 115.111 89.0011C117.751 96.4957 121.451 111.147 115.132 109.798C107.232 108.111 103.768 105.662 90.2179 91.7547C79.3781 80.6291 58.8321 70.2827 50.9989 66.5002C47.2622 64.6958 29.0666 56.6644 19.9989 56.5002C10.058 56.3202 2.27095 57.6167 -0.000935565 58.0002C3.99906 63.0002 10.0701 61.0002 22.999 64.0002C30.7 65.7871 43.6912 74.8872 57.2107 82.7115C70.7303 90.5359 91.4235 119.45 100.816 123.925C110.209 128.399 120.041 138.379 129.896 136.686C139.752 134.994 174.461 139.179 153.64 150.872C132.819 162.565 101.082 160.914 91.9426 157.918C84.6314 155.521 79.7039 148.689 78.1541 145.573C76.181 139.994 70.4659 126.804 63.3893 118.685C56.3128 110.565 50.4685 104.501 48.4309 102.483L42.0247 103.583C44.8936 107.487 51.9018 116.193 56.9831 119.785C62.0645 123.377 66.6438 139.602 68.2984 147.266C67.5667 148.914 64.177 151.627 56.4715 149.298C48.766 146.968 32.2318 140.101 24.9278 136.959L16.5505 138.398L58.1643 159.153C66.4075 163.825 85.4314 174.357 95.5821 179.107C105.733 183.858 142.39 180.876 159.45 178.791C172.427 176.562 198.288 173.338 197.918 178.272C197.455 184.44 191.064 188.581 177.888 200.483C167.348 210.005 154.336 225.775 150.499 231C142.025 240.333 121.762 259.8 108.509 263C91.9426 267 56.5657 270 42.0248 281.5C30.3922 290.7 11.1607 300 2.99908 303.5L12.9991 303.5C20.539 301.167 36.8999 295.4 42.0249 291C48.4311 285.5 52.7954 282.5 60.5469 279C68.2984 275.5 96.1341 274 100.816 276.5C105.499 279 106.051 285.5 100.817 291C95.582 296.5 85.4989 314.5 83.9989 321.5C82.4989 328.5 83.9989 341.5 87.4989 358.5C92.4989 352 92.9989 352 94.4989 349.5C93.1152 344.5 91.3945 331.9 95.5821 321.5C100.816 308.5 118.101 291.5 123.999 281.5C129.896 271.5 129.896 269.5 129.896 265C129.896 260.5 151.649 246.673 155.824 243.337C163.771 232.502 180.961 210.102 186.141 207.183C192.617 203.534 221.123 183.418 232.905 172.263C244.687 161.108 287.29 149.224 309.943 142.29C332.596 135.355 357.828 134.572 389.58 139.265Z" fill="#8E7066"/>
</svg>
