<svg width="557" height="325" viewBox="0 0 557 325" fill="none" xmlns="http://www.w3.org/2000/svg">
<path d="M97.5706 192.119C92.7532 190.97 82.5163 189.247 72.8815 189.247C66.8597 211.647 24.7074 217.965 9.05088 197.862C-6.60568 177.76 12.6639 168.57 20.4922 163.975C10.2552 161.677 0.620428 154.785 0.0182526 145.021C-0.583923 135.257 13.8683 132.959 20.4922 133.534C27.1161 134.108 36.1488 127.216 49.3966 114.006C59.3206 104.11 70.371 106.871 75.5273 109.935C69.8053 105.808 59.3511 91.1027 56.6227 59.4413C53.0097 17.513 84.3228 8.32319 97.5706 2.57958C110.819 -3.16402 128.282 0.856503 138.519 12.9181C146.708 22.5673 151.967 36.8498 153.573 42.7848C154.777 28.4258 181.273 7.17447 205.36 18.6617C229.447 30.1489 213.188 46.231 210.177 54.8464C207.167 63.4618 215.597 78.9696 224.027 78.9696C232.458 78.9696 258.954 66.3336 284.245 87.585C302.599 103.007 306.484 115.814 306.148 121.633C307.193 115.699 310.969 105.766 319.773 103.667C344.463 84.1388 390.83 81.8414 416.121 78.9696C441.413 76.0977 466.704 89.8824 485.372 101.37C499.213 109.887 498.26 136.494 495.649 151.469C497.017 149.149 500.531 146.494 508.254 145.021C520.298 142.724 522.104 144.064 521.502 145.021C527.925 147.127 543.421 158.921 554.02 189.247C567.267 227.155 532.341 227.729 527.524 230.601C522.706 233.473 513.072 230.601 508.254 227.729C504.4 225.432 503.838 220.262 504.039 217.965C501.63 219.879 498.258 225.087 504.039 230.601C511.265 237.493 505.243 238.642 499.824 248.406C494.404 258.17 483.565 252.426 473.328 252.426C463.091 252.426 449.843 243.237 435.391 248.406C420.939 253.575 412.508 248.406 416.121 252.426C419.734 256.447 418.53 259.893 416.121 265.637C414.377 269.796 406.908 269.877 402.381 269.286C403.272 271.21 404.613 276.164 406.487 286.888C410.702 311.011 385.41 322.498 366.141 324.796C350.725 326.634 327.2 315.606 317.365 309.863L295.084 306.416C287.055 305.459 270.515 304.119 268.588 306.416C266.18 309.288 237.878 313.309 239.082 297.801C240.045 285.395 245.907 281.91 248.717 281.719C245.104 280.762 237.034 280.455 233.662 286.888C229.447 294.929 200.543 287.462 188.499 281.719C176.456 275.975 185.488 270.232 192.112 259.893C197.411 251.622 203.152 254.532 205.36 257.021C206.163 255.681 205.721 252.082 197.532 248.406C187.295 243.811 171.036 237.493 158.39 227.729C148.274 219.918 150.964 213.37 153.573 211.073C154.376 208.775 153.573 205.559 143.938 211.073C131.895 217.965 119.851 213.37 114.432 211.073C109.012 208.775 102.388 193.267 97.5706 192.119Z" fill="url(#paint0_linear_247_475)"/>
<defs>
<linearGradient id="paint0_linear_247_475" x1="278.5" y1="0" x2="278.5" y2="325" gradientUnits="userSpaceOnUse">
<stop stop-color="#5DD7A2"/>
<stop offset="1" stop-color="#2FAA95"/>
</linearGradient>
</defs>
</svg>
