<svg width="361" height="325" viewBox="0 0 361 325" fill="none" xmlns="http://www.w3.org/2000/svg">
<path d="M-37.4294 192.119C-42.2468 190.97 -52.4837 189.247 -62.1185 189.247C-68.1403 211.647 -110.293 217.965 -125.949 197.862C-141.606 177.76 -122.336 168.57 -114.508 163.975C-124.745 161.677 -134.38 154.785 -134.982 145.021C-135.584 135.257 -121.132 132.959 -114.508 133.534C-107.884 134.108 -98.8512 127.216 -85.6034 114.006C-75.6794 104.11 -64.629 106.871 -59.4727 109.935C-65.1947 105.808 -75.6489 91.1027 -78.3773 59.4413C-81.9903 17.513 -50.6772 8.32319 -37.4294 2.57958C-24.1815 -3.16402 -6.71841 0.856503 3.51857 12.9181C11.7082 22.5673 16.9671 36.8498 18.573 42.7848C19.7773 28.4258 46.273 7.17447 70.36 18.6617C94.4471 30.1489 78.1883 46.231 75.1774 54.8464C72.1666 63.4618 80.597 78.9696 89.0275 78.9696C97.4579 78.9696 123.954 66.3336 149.245 87.585C167.599 103.007 171.484 115.814 171.148 121.633C172.193 115.699 175.969 105.766 184.773 103.667C209.463 84.1388 255.83 81.8414 281.121 78.9696C306.413 76.0977 331.704 89.8824 350.372 101.37C364.213 109.887 363.26 136.494 360.649 151.469C362.017 149.149 365.531 146.494 373.254 145.021C385.298 142.724 387.104 144.064 386.502 145.021C392.925 147.127 408.421 158.921 419.02 189.247C432.267 227.155 397.341 227.729 392.524 230.601C387.706 233.473 378.072 230.601 373.254 227.729C369.4 225.432 368.838 220.262 369.039 217.965C366.63 219.879 363.258 225.087 369.039 230.601C376.265 237.493 370.243 238.642 364.824 248.406C359.404 258.17 348.565 252.426 338.328 252.426C328.091 252.426 314.843 243.237 300.391 248.406C285.939 253.575 277.508 248.406 281.121 252.426C284.734 256.447 283.53 259.893 281.121 265.637C279.377 269.796 271.908 269.877 267.381 269.286C268.272 271.21 269.613 276.164 271.487 286.888C275.702 311.011 250.41 322.498 231.141 324.796C215.725 326.634 192.2 315.606 182.365 309.863L160.084 306.416C152.055 305.459 135.515 304.119 133.588 306.416C131.18 309.288 102.878 313.309 104.082 297.801C105.045 285.395 110.907 281.91 113.717 281.719C110.104 280.762 102.034 280.455 98.6623 286.888C94.4471 294.929 65.5426 287.462 53.4991 281.719C41.4556 275.975 50.4883 270.232 57.1122 259.893C62.4113 251.622 68.1521 254.532 70.36 257.021C71.1629 255.681 70.7213 252.082 62.5318 248.406C52.2948 243.811 36.0361 237.493 23.3904 227.729C13.2738 219.918 15.9635 213.37 18.573 211.073C19.3759 208.775 18.573 205.559 8.93816 211.073C-3.10536 217.965 -15.1489 213.37 -20.5684 211.073C-25.988 208.775 -32.612 193.267 -37.4294 192.119Z" fill="url(#paint0_linear_181_450)"/>
<defs>
<linearGradient id="paint0_linear_181_450" x1="143.5" y1="0" x2="143.5" y2="325" gradientUnits="userSpaceOnUse">
<stop stop-color="#5DD7A2"/>
<stop offset="1" stop-color="#2FAA95"/>
</linearGradient>
</defs>
</svg>
