<svg width="100%" height="100%" viewBox="0 0 361 359" fill="none" xmlns="http://www.w3.org/2000/svg">
<path d="M341.582 139.265C373.334 143.958 400.671 252.903 406.838 253.365C408.617 208.585 407.421 112.027 388.409 84.0412C364.645 49.0592 316.367 60.3951 301.992 62.3568C287.616 64.3185 249.154 82.5929 233.385 85.3013C217.616 88.0098 179.672 94.5269 173.574 91.5157C167.476 88.5044 153.34 88.9032 144.231 91.9896C135.122 95.0761 125.889 106.301 114.062 108.332C102.235 110.364 95.1669 110.563 90.2936 105.82C85.4203 101.076 81.5872 90.5733 75.4292 75.3967C69.2713 60.2201 76.1346 35.1972 76.9208 27.9596C77.5497 22.1696 90.6285 7.34169 97.0892 0.651489L87.4724 0.781265C85.347 3.17559 79.4099 9.37001 72.6644 14.993C64.2325 22.0218 62.5209 41.594 60.5103 50.5638C58.9018 57.7396 64.2413 79.1785 67.1121 89.0009C69.7522 96.4955 73.4524 111.147 67.1328 109.798C59.2332 108.11 55.7686 105.662 42.219 91.7545C31.3792 80.6289 8.83128 66.7115 -1.08774 61.1435L-22.3771 61.2489C-24.0793 66.1071 -26.09 75.0769 -20.5151 72.0901C-13.5465 68.3566 -4.30777 74.887 9.21182 82.7113C22.7314 90.5357 43.4246 119.45 52.8176 123.925C62.2106 128.399 72.0418 138.379 81.8975 136.686C91.7532 134.994 126.462 139.178 105.641 150.872C84.8203 162.565 53.0828 160.914 43.9437 157.917C36.6324 155.52 31.705 148.689 30.1551 145.573C28.1821 139.993 22.467 126.804 15.3904 118.685C8.31389 110.565 2.46957 104.5 0.431981 102.483L-5.97422 103.583C-3.1053 107.487 3.90291 116.193 8.98423 119.785C14.0655 123.377 18.6449 139.602 20.2994 147.266C19.5678 148.914 16.1781 151.627 8.47263 149.297C0.767122 146.968 -15.7672 140.101 -23.0712 136.959L-31.4485 138.398L10.1654 159.153C18.4086 163.825 37.4325 174.357 47.5831 179.107C57.7337 183.857 94.3914 180.876 111.451 178.791C124.428 176.562 150.289 173.338 149.919 178.272C149.456 184.439 143.065 188.581 129.889 200.483C119.349 210.005 106.338 225.775 102.5 231C94.0257 240.333 73.7636 259.8 60.5103 263C43.9437 267 8.56664 270 -5.97423 281.5C-17.6069 290.7 -36.8384 300 -45 303.5L-35 303.5C-27.4601 301.167 -11.0992 295.4 -5.97423 291C0.431984 285.5 4.79646 282.5 12.5479 279C20.2994 275.5 48.1352 274 52.8176 276.5C57.5 279 58.052 285.5 52.8176 291C47.5831 296.5 37.5 314.5 36 321.5C34.5 328.5 36 341.5 39.5 358.5C44.5 352 45 352 46.5 349.5C45.1162 344.5 43.3956 331.9 47.5831 321.5C52.8176 308.5 70.1025 291.5 76 281.5C81.8975 271.5 81.8975 269.5 81.8975 265C81.8975 260.5 103.65 246.673 107.825 243.336C115.772 232.501 132.962 210.102 138.143 207.183C144.618 203.534 173.125 183.418 184.906 172.263C196.688 161.107 239.291 149.224 261.944 142.289C284.597 135.355 309.829 134.572 341.582 139.265Z" fill="#8E7066"/>
</svg>
