<?xml version="1.0" encoding="utf-8"?>
<!-- Generator: Adobe Illustrator 27.7.0, SVG Export Plug-In . SVG Version: 6.00 Build 0)  -->
<svg version="1.1" id="Layer_1" xmlns="http://www.w3.org/2000/svg" xmlns:xlink="http://www.w3.org/1999/xlink" x="0px" y="0px"
	 viewBox="0 0 117.1 60" style="enable-background:new 0 0 117.1 60;" xml:space="preserve">
<style type="text/css">
	.st0{fill:#DD7908;}
</style>
<path class="st0" d="M11.7,10c1,0.4,1.9,1.1,2.8,1.9l-3,3.3c-0.9-1-1.9-1.5-3.2-1.5c-1.3,0-2.1,0.2-2.6,0.7c-0.4,0.5-0.4,0.9,0,1.3
	c0.4,0.4,1.3,0.7,2.6,1c1.9,0.2,3.4,0.7,4.6,1.6c1.2,0.9,1.8,2.5,1.8,4.7c0,1.8-0.7,3.2-2.1,4.2c-1.4,1-3.1,1.5-5,1.5
	c-1.8,0-3.3-0.3-4.5-0.8c-1.2-0.5-2.2-1.2-3.1-2.1l2.9-3.3c0.9,1,2.2,1.6,4,1.8c1.5,0,2.4-0.2,2.8-0.7c0.4-0.5,0.5-1,0.2-1.4
	c-0.3-0.5-1.3-0.8-3-1c-1.6-0.2-3-0.7-4.3-1.4c-1.3-0.8-1.9-2.2-1.9-4.4c0-2,0.7-3.5,2.2-4.5c1.5-1,3-1.5,4.5-1.5
	C9.3,9.4,10.7,9.6,11.7,10z M39.9,21.7V9.5h5.3v19h-5.3v-1.7c-1.3,1.1-2.8,1.7-4.6,1.7c-2.4,0-4.2-0.7-5.5-2.2
	c-1.3-1.5-1.9-3.1-1.9-5V9.5h5.3v10.4c0,1.3,0.3,2.2,0.9,2.9c0.6,0.7,1.6,1.1,2.9,1.1C38.2,23.9,39.1,23.1,39.9,21.7z M61.1,20.5
	c-0.4,0.6-1,1.1-1.6,1.5c-0.4,0.2-0.7,0.4-1.1,0.5c-0.5,0.2-1.1,0.2-1.7,0.2c-0.4,0-0.8,0-1.2,0c-0.2,0-0.4,0-0.7,0
	c0,0.2,0,0.6,0.1,0.9c0.1,0.9,0.1,1.2,0,1.3C54.7,25,54.7,25,54.6,25h0c-0.4,0-0.7-0.5-1.3-1.5c-0.2-0.4-0.6-0.9-0.7-1
	c-1.2-0.4-2.7-1.3-2.7-4.2c0-1.1,0.8-2.3,2.1-3.1c1.3-0.8,2.8-1.3,4.3-1.3c1.5,0,2.9,0.4,4,1.2c1.1,0.8,1.7,1.9,1.7,3
	C61.9,18.9,61.6,19.7,61.1,20.5z M60.1,0v11c-0.9-0.9-2.3-1.4-4.2-1.5c-2.9,0-5.2,0.9-6.9,2.8c-1.7,1.9-2.6,4.1-2.6,6.6
	c0,2.5,0.9,4.7,2.6,6.6c1.7,1.9,4,2.8,6.9,2.8c1.4,0,2.8-0.5,4.2-1.5v1.5h5.3V0L60.1,0z M91.6,16.4v12.1h-5.3V10l5.3-0.6v1.7
	c1.3-1.1,2.8-1.7,4.6-1.7c2.4,0,4.2,0.7,5.5,2.2c1.3,1.5,1.9,3.1,1.9,5v11.8h-5.3V18c0-1.3-0.3-2.2-0.9-2.9
	c-0.6-0.7-1.6-1.1-2.9-1.1C93.3,14.1,92.3,14.9,91.6,16.4z M113.9,28.5c-2.2,0-3.9-0.6-5.1-1.8c-1.3-1.2-1.9-2.7-1.9-4.6v-8.2H104
	V9.5h2.8V4.4l5.3-0.6v5.7h2.9v4.3h-2.9v7.5c0,1,0.2,1.7,0.6,2.1c0.4,0.4,1,0.6,1.6,0.6c0.2,0,0.7-0.1,1.4-0.2l1.1,3.8
	C116.1,28.2,115.1,28.5,113.9,28.5z M24.9,28.5c-2.2,0-3.9-0.6-5.1-1.8c-1.3-1.2-1.9-2.7-1.9-4.6v-8.2H15V9.5h2.9V4.4l5.3-0.6v5.7
	h2.9v4.3h-2.9v7.5c0,1,0.2,1.7,0.6,2.1c0.4,0.4,1,0.6,1.6,0.6c0.2,0,0.7-0.1,1.4-0.2l1.1,3.8C27.1,28.2,26.1,28.5,24.9,28.5z
	 M78.5,14.7c-0.8-0.6-1.6-0.8-2.6-0.8c-1,0-1.9,0.3-2.6,0.8c-0.8,0.6-1.1,1.3-1.1,2.3h7.5C79.6,16.1,79.3,15.3,78.5,14.7z M66.5,19
	c0-2.8,0.9-5,2.6-6.8c1.8-1.8,4-2.6,6.8-2.6c2.8,0,5,0.9,6.6,2.6c1.6,1.8,2.4,4,2.4,6.8v1.9h-13c0.1,1,0.6,1.8,1.3,2.3
	c0.7,0.6,1.6,0.8,2.6,0.8c1.8,0,3.3-0.5,4.7-1.5l3,3c-1.4,1.9-4,2.8-7.7,2.8c-2.8,0-5-0.9-6.8-2.6C67.3,24,66.5,21.7,66.5,19z
	 M17.9,47.9v12h-5.2V41.7l5.2-0.6v1.7c1.2-1.1,2.7-1.6,4.5-1.6c2.4,0,4.2,0.7,5.4,2.2c1.4-1.4,3.4-2.2,6.2-2.2
	c2.4,0,4.2,0.7,5.4,2.2c1.2,1.4,1.9,3.1,1.9,5v11.6h-5.3V49.6c0-1.3-0.3-2.2-0.8-2.9c-0.6-0.7-1.5-1-2.7-1.1c-1,0.1-1.9,0.8-2.7,2.1
	c-0.1,0.4-0.1,0.8-0.1,1.2v11h-5.3V49.6c0-1.3-0.3-2.2-0.8-2.9c-0.6-0.7-1.5-1-2.7-1.1C19.7,45.7,18.7,46.4,17.9,47.9z M48.3,41.1
	H43v18.7h5.3V41.1z M43.6,34.7c0.5-0.5,1.2-0.8,2-0.8c0.9,0,1.6,0.2,2.1,0.8c0.5,0.5,0.8,1.1,0.8,1.9c0,0.7-0.2,1.4-0.8,1.9
	c-0.5,0.5-1.2,0.8-2.1,0.8c-0.9,0-1.6-0.3-2.1-0.8c-0.5-0.5-0.8-1.1-0.8-1.9C42.8,35.9,43.1,35.2,43.6,34.7z M55.5,47.9v11.9h-5.3
	V41.6l5.3-0.6v1.7c1.3-1.1,2.8-1.7,4.5-1.7c2.4,0,4.2,0.7,5.4,2.1c1.2,1.4,1.9,3.1,1.9,5v11.6h-5.3V49.5c0-1.2-0.3-2.2-0.9-2.9
	c-0.6-0.7-1.6-1-2.8-1.1C57.2,45.6,56.3,46.4,55.5,47.9z M81.6,53.7c-0.1,0.1-0.5,0.6-0.7,1c-0.7,1.1-1,1.5-1.3,1.5h0
	c-0.1,0-0.2,0-0.2-0.1c-0.1-0.2-0.1-0.4,0-1.3c0-0.3,0.1-0.7,0.1-0.9c-0.2,0-0.4,0-0.6,0c-0.4,0-0.8,0-1.2,0c-0.6,0-1.1-0.1-1.7-0.2
	c-0.4-0.1-0.8-0.3-1.1-0.5c-0.6-0.4-1.2-0.9-1.6-1.4c-0.5-0.7-0.8-1.5-0.8-2.4c0-1.1,0.6-2.2,1.7-3c1.1-0.8,2.5-1.2,3.9-1.2
	c1.5,0,3,0.5,4.3,1.3c1.3,0.9,2,2,2,3.1C84.3,52.5,82.8,53.3,81.6,53.7z M82,31.7v10.9c-0.9-0.9-2.3-1.4-4.1-1.5
	c-2.9,0-5.2,0.9-6.8,2.8c-1.7,1.9-2.5,4.1-2.5,6.5c0,2.5,0.8,4.7,2.5,6.5c1.7,1.9,4,2.8,6.8,2.8c1.4,0,2.7-0.5,4.1-1.5v1.5h5.2v-28
	L82,31.7z M99.8,41.6c1,0.4,1.9,1.1,2.7,1.9l-2.9,3.3c-0.8-1-1.9-1.5-3.2-1.5c-1.3,0-2.1,0.2-2.5,0.7c-0.4,0.5-0.4,0.9,0,1.3
	c0.4,0.4,1.3,0.7,2.5,0.9c1.9,0.2,3.4,0.7,4.6,1.6c1.2,0.9,1.8,2.4,1.8,4.6c0,1.8-0.7,3.1-2.1,4.1c-1.4,1-3,1.5-4.9,1.5
	c-1.8,0-3.3-0.3-4.4-0.8c-1.2-0.5-2.2-1.2-3-2l2.9-3.3c0.9,1,2.2,1.6,4,1.8c1.4,0,2.4-0.2,2.8-0.7c0.4-0.5,0.5-0.9,0.2-1.4
	c-0.3-0.5-1.3-0.8-3-0.9c-1.5-0.2-2.9-0.6-4.2-1.4c-1.3-0.8-1.9-2.2-1.9-4.3c0-1.9,0.7-3.4,2.2-4.4c1.4-1,2.9-1.5,4.5-1.5
	C97.5,41,98.8,41.2,99.8,41.6z"/>
</svg>
