<svg width="74" height="82" viewBox="0 0 74 82" fill="none" xmlns="http://www.w3.org/2000/svg">
<g clip-path="url(#clip0_219_586)">
<path d="M37 0.00354004C16.5651 0.00354004 0 16.3761 0 36.5737C0 42.2074 1.32143 47.8153 3.86465 52.8582C5.10743 55.32 6.63336 57.642 8.40051 59.7669C9.28146 60.8242 10.2253 61.8245 11.2164 62.7885C11.4052 62.9751 11.5782 63.1254 11.746 63.2446C15.7051 53.2314 25.1701 45.9598 36.4599 45.0632C36.4599 44.8662 36.4599 44.69 36.4599 44.5449C36.4914 42.8242 36.5018 41.0931 36.3445 39.3828C36.2711 38.5639 36.2659 37.2267 35.6471 36.5789C32.5061 33.2722 33.3818 39.9944 21.1743 39.6471C11.8562 39.3828 5.30669 32.2356 5.30669 32.2356C5.30669 32.2356 10.3617 27.9287 21.0013 28.618C30.7966 29.2503 37.0105 33.1012 37.0105 33.1012C37.0105 33.1012 37.215 18.4493 47.8546 15.3499C58.489 12.2454 60.2351 12.9347 60.2351 12.9347C60.2351 12.9347 59.5377 22.2431 53.9583 26.5501C48.379 30.857 39.8316 34.1326 39.8316 34.1326C39.8316 34.1326 38.6098 34.4798 39.3073 38.9578C39.6114 40.9273 39.5799 42.9641 39.4698 44.9751C49.1865 45.1876 58.7407 50.3704 62.5529 62.4672C64.2518 62.0526 74.0105 53.107 74.0105 36.5737C74 16.3761 57.435 0.00354004 37 0.00354004Z" fill="#40437C"/>
<path d="M5.3277 81.5402C5.08125 81.4107 4.92393 81.2604 4.84528 81.0893C4.76662 80.9183 4.72467 80.7058 4.72467 80.4415L4.4887 71.9572C4.46248 71.698 4.48346 71.4803 4.54638 71.3041C4.60931 71.1279 4.75089 70.9724 4.96064 70.8325C5.17039 70.6977 5.50075 70.6252 5.95171 70.6252C6.54426 70.6148 6.99522 70.6925 7.29411 70.8688C7.59301 71.045 7.84995 71.3093 8.04397 71.6617L10.3198 75.7458C10.5452 75.2638 10.7393 74.8388 10.9018 74.476C11.0644 74.1132 11.2322 73.74 11.4052 73.3617C11.5783 72.9834 11.7303 72.6568 11.8614 72.377C11.9925 72.0971 12.0817 71.9157 12.1184 71.838C12.1865 71.7084 12.3019 71.527 12.475 71.2989C12.648 71.0709 12.8945 70.8584 13.2143 70.6614C13.5394 70.4645 13.9642 70.3608 14.4886 70.3505C14.8818 70.3349 15.186 70.3816 15.401 70.48C15.6107 70.5785 15.7575 70.6925 15.8467 70.8221C15.9306 70.9517 15.9883 71.1227 16.0145 71.33C16.0145 71.9934 16.0145 72.5998 16.025 73.1492C16.0355 73.6986 16.0355 74.2946 16.0355 74.9477V76.912C16.0355 77.5702 16.0355 78.1714 16.046 78.7208C16.0512 79.2702 16.0564 79.7107 16.0564 80.0476V80.5762C16.0564 80.5762 16.0564 80.654 16.046 80.7732C16.0407 80.8924 15.9883 81.0219 15.8991 81.1723C15.8047 81.3226 15.6474 81.4521 15.4167 81.561C15.186 81.6698 14.8451 81.7268 14.3994 81.7268C13.9537 81.7268 13.6128 81.6802 13.3821 81.5817C13.1514 81.4832 12.9888 81.3744 12.8997 81.25C12.8106 81.1256 12.7476 80.9753 12.7214 80.7887C12.7214 80.3326 12.7214 79.9336 12.7319 79.5863C12.7371 79.2391 12.7424 78.897 12.7529 78.5497C12.7634 78.2025 12.7634 77.7982 12.7634 77.3266L12.9207 74.533L11.8929 76.7046C11.7461 76.9897 11.5783 77.2074 11.379 77.3525C11.1797 77.4976 10.8861 77.5754 10.4876 77.5857C10.1048 77.6013 9.80588 77.5443 9.58564 77.4199C9.3654 77.2955 9.17138 77.1089 9.00358 76.8601L7.71886 74.533C7.76081 75.1446 7.79227 75.694 7.81849 76.1864C7.84471 76.6735 7.87093 77.1918 7.89715 77.7308C7.92337 78.2699 7.94434 78.7778 7.96532 79.2546C7.98629 79.7314 8.00202 80.1098 8.01251 80.4C8.023 80.7524 7.95483 81.022 7.79227 81.2137C7.62971 81.4055 7.45143 81.5351 7.23643 81.6024C7.02668 81.675 6.75401 81.7165 6.42365 81.732C5.93598 81.732 5.56892 81.6646 5.3277 81.535V81.5402Z" fill="#40437C"/>
<path d="M17.4984 79.068C17.4827 78.3994 17.4774 77.679 17.4774 76.9068C17.4774 76.1345 17.4879 75.3934 17.5089 74.6678C17.5299 73.9422 17.5508 73.3047 17.577 72.7449C17.6033 72.1852 17.6295 71.7809 17.6557 71.5322C17.6977 71.2212 17.8078 70.9828 17.9913 70.8169C18.1748 70.6563 18.3846 70.5422 18.6153 70.4749C18.846 70.4127 19.124 70.3712 19.4543 70.3557C19.7847 70.3971 20.0469 70.4386 20.2461 70.4904C20.4454 70.5422 20.5817 70.6355 20.6604 70.7651C20.8334 71.0242 20.9121 71.2782 20.9068 71.5166C20.9016 71.7602 20.8859 72.066 20.8596 72.4443C20.781 73.4239 20.7338 74.3775 20.7233 75.3156C20.7076 76.2537 20.7076 77.1089 20.7233 77.876C20.7338 78.643 20.7653 79.4878 20.802 80.4C20.7862 80.6747 20.7443 80.8976 20.6656 81.0634C20.587 81.2344 20.4349 81.3847 20.2094 81.5247C19.9839 81.6594 19.6536 81.732 19.2183 81.732C18.7831 81.732 18.4528 81.6853 18.222 81.5869C17.9913 81.4884 17.834 81.3744 17.7448 81.2344C17.6609 81.0997 17.6033 80.9338 17.577 80.7369C17.5351 80.2963 17.5089 79.7366 17.4984 79.068Z" fill="#40437C"/>
<path d="M24.0741 81.5713C23.8329 81.4625 23.6599 81.3329 23.5602 81.1826C23.4606 81.0323 23.4029 80.8457 23.3924 80.628C23.3138 79.8454 23.2404 79.1457 23.1722 78.529C23.104 77.9122 23.0359 77.2436 22.9624 76.5336C22.889 75.8235 22.8156 75.1394 22.7422 74.4812C22.6688 73.823 22.6111 73.2632 22.5744 72.802C22.5325 72.3407 22.5062 72.0504 22.4957 71.9312C22.48 71.5943 22.5587 71.2937 22.7212 71.0398C22.8838 70.7858 23.2928 70.6407 23.9378 70.5992C24.373 70.5733 24.7243 70.6407 24.9865 70.7962C25.2487 70.9517 25.5004 71.1953 25.7364 71.5218L27.5927 75.979L28.3216 77.3266L27.8654 73.6105C27.8811 72.7501 27.9073 72.0193 27.944 71.4233C27.9702 71.1227 28.0699 70.8947 28.2429 70.7392C28.416 70.5837 28.61 70.4748 28.825 70.4075C29.04 70.3401 29.3179 70.3038 29.6482 70.2883C29.9524 70.3142 30.2041 70.3764 30.3981 70.4749C30.5921 70.5733 30.7704 70.7444 30.9225 70.9828C31.0745 71.2264 31.1427 71.5736 31.1322 72.0297C31.1165 72.5895 31.1375 73.2269 31.1899 73.937C31.2423 74.647 31.3105 75.3726 31.3997 76.119C31.4836 76.8601 31.5727 77.5546 31.6566 78.2025C31.7405 78.8451 31.8192 79.3842 31.8926 79.8143C31.966 80.2445 32.0079 80.5088 32.0237 80.6177C32.0499 80.7732 32.0551 80.9649 32.0446 81.1826C32.0289 81.4055 31.9293 81.5972 31.7405 81.7683C31.5465 81.9393 31.1951 82.0274 30.6813 82.043C30.1674 82.043 29.7846 81.9859 29.5329 81.8667C29.2812 81.7475 29.0714 81.5661 28.8984 81.3174L25.9304 76.062C26.0353 76.5854 26.1244 77.0519 26.1978 77.4717C26.2713 77.8863 26.3447 78.3372 26.4181 78.8192C26.4915 79.3012 26.5492 79.7625 26.5859 80.2082C26.6278 80.654 26.5754 80.9805 26.4391 81.193C26.3027 81.4106 26.1297 81.5558 25.9252 81.6335C25.7207 81.7113 25.4585 81.7527 25.1438 81.7527C24.6667 81.7527 24.3101 81.6957 24.0636 81.5869L24.0741 81.5713Z" fill="#40437C"/>
<path d="M33.6125 78.0522C33.5443 77.2126 33.4814 76.4092 33.4237 75.637C33.366 74.8699 33.3136 74.2117 33.2769 73.6727C33.2349 73.1337 33.2035 72.7812 33.1772 72.6257C33.1353 72.3251 33.1877 72.066 33.3346 71.8431C33.151 71.6462 33.0566 71.4907 33.0566 71.3715C33.0566 71.1642 33.1877 70.9931 33.4447 70.8636C33.7016 70.734 33.9953 70.6355 34.3256 70.5682C34.656 70.506 35.0755 70.4438 35.5894 70.3919C36.1138 70.366 36.5857 70.3712 37.0052 70.4127C37.4195 70.4541 37.8704 70.5526 38.3476 70.7133C38.83 70.8739 39.2915 71.1331 39.7319 71.4855C40.1724 71.838 40.5447 72.3148 40.8489 72.9212C41.153 73.5276 41.3365 74.2998 41.4047 75.2379C41.4834 76.347 41.4362 77.2748 41.2579 78.0315C41.0796 78.7881 40.8174 79.4049 40.4661 79.8765C40.1147 80.3482 39.7162 80.7213 39.2705 80.9805C38.8195 81.2396 38.3581 81.421 37.8757 81.5195C37.3932 81.618 36.937 81.675 36.5123 81.6957C36.0823 81.7164 35.71 81.7268 35.3954 81.7268C34.9339 81.7268 34.5878 81.6594 34.3571 81.5299C34.1264 81.4003 33.9743 81.2552 33.9009 81.0893C33.8275 80.9287 33.7908 80.7162 33.7908 80.4518C33.7383 79.6848 33.6806 78.8763 33.6125 78.0366V78.0522ZM35.9092 72.1593L36.7797 80.0735C37.0157 80.0476 37.2254 79.9802 37.4037 79.8765C37.582 79.7729 37.7551 79.5811 37.9176 79.3116C38.0802 79.0369 38.2113 78.6482 38.3056 78.1507C38.4 77.6531 38.4158 76.9949 38.3633 76.1864C38.3109 75.1705 38.2008 74.3775 38.0382 73.8126C37.8757 73.2477 37.6764 72.8382 37.4457 72.5895C37.2149 72.3407 36.9685 72.2008 36.7011 72.1593C36.4389 72.1178 36.1714 72.1178 35.9092 72.1593Z" fill="#40437C"/>
<path d="M44.4199 81.5816C44.1735 81.478 44.0057 81.3588 43.9165 81.2292C43.8221 81.0996 43.7644 80.9286 43.7382 80.7213C43.6176 80.0061 43.5127 79.3582 43.4236 78.7881C43.3292 78.2128 43.2296 77.5909 43.1195 76.9223C43.0093 76.2537 42.8992 75.6006 42.8048 74.9683C42.7052 74.336 42.6161 73.7815 42.5374 73.3046C42.4587 72.8278 42.4011 72.5065 42.3591 72.3355C42.3067 72.0763 42.3224 71.8638 42.4063 71.698C42.4902 71.5373 42.6056 71.4129 42.7419 71.3248C42.8782 71.2419 43.0618 71.1641 43.2873 71.1019C43.9585 70.9827 44.5458 70.8791 45.0492 70.791C45.5526 70.6977 46.0664 70.6148 46.5908 70.5266C47.1204 70.4437 47.5819 70.3763 47.9752 70.3193C48.3685 70.2675 48.6778 70.283 48.9033 70.366C49.1288 70.4489 49.2914 70.5577 49.3962 70.6873C49.5011 70.8169 49.5798 70.9931 49.6322 71.216C49.7004 71.6306 49.7528 71.983 49.7895 72.2629C49.8315 72.5428 49.8577 72.8071 49.8682 73.0559C49.8944 73.4187 49.8105 73.7193 49.6112 73.9525C49.412 74.1857 48.9872 74.336 48.3265 74.4034C47.8913 74.4449 47.5819 74.3982 47.3984 74.2687C47.2148 74.1391 47.089 73.9318 47.0208 73.6415L46.9002 72.351L45.6522 72.4702L46.3444 75.8339C46.6852 75.8339 46.9684 75.8494 47.1939 75.8805C47.4193 75.9116 47.6238 75.9842 47.8074 76.0878C47.9909 76.1915 48.1063 76.3573 48.143 76.575C48.1849 76.7823 48.1272 76.9534 47.9752 77.0829C47.8231 77.2125 47.6448 77.3058 47.4403 77.3576C47.2358 77.4095 46.9684 77.4561 46.638 77.4924C46.7953 78.6015 46.9212 79.5603 47.0156 80.3637C47.068 80.7679 47.0156 81.0685 46.8687 81.2603C46.7219 81.4521 46.5331 81.5868 46.3129 81.649C46.0927 81.7112 45.8095 81.7371 45.4529 81.7268C45.0072 81.7268 44.6611 81.6749 44.4147 81.5713L44.4199 81.5816Z" fill="#40437C"/>
<path d="M53.7171 70.6459C53.9373 70.7443 54.1209 70.9154 54.2834 71.1538C54.446 71.3922 54.5089 71.7446 54.4827 72.2007C54.467 72.5013 54.4512 72.9004 54.4355 73.4031C54.4145 73.9059 54.404 74.4501 54.404 75.0461C54.404 75.6421 54.4198 76.2278 54.4512 76.8134C54.4827 77.3991 54.5456 77.9433 54.6295 78.4357C54.7134 78.9332 54.834 79.3271 54.9861 79.6174C55.1382 79.9076 55.3269 80.0527 55.5524 80.0372C55.7884 80.0268 55.9667 79.8661 56.0873 79.5603C56.2079 79.2546 56.2865 78.8658 56.3233 78.389C56.3652 77.9122 56.3757 77.4095 56.3652 76.8756C56.3495 76.3418 56.3232 75.8287 56.2865 75.3415C56.2446 74.8543 56.2131 74.4501 56.1764 74.1287C56.145 73.8074 56.1187 73.6312 56.1083 73.5897C56.0925 73.5379 56.0768 73.429 56.0506 73.258C56.0244 73.087 56.0348 72.9056 56.0925 72.7086C56.1502 72.5117 56.2813 72.3355 56.4963 72.18C56.7113 72.0245 57.0574 71.926 57.5346 71.8846C58.0117 71.8431 58.3788 71.9053 58.641 72.0608C58.9032 72.2163 59.092 72.408 59.2021 72.6257C59.3122 72.8486 59.3909 73.1284 59.4276 73.4653C59.5167 74.0665 59.5796 74.6107 59.6163 75.0979C59.6478 75.5851 59.6478 76.1241 59.6163 76.7098C59.5849 77.2954 59.4957 77.8863 59.3594 78.4771C59.2231 79.068 59.0028 79.6122 58.6987 80.0994C58.3945 80.5865 57.9855 80.9805 57.4716 81.2811C56.9577 81.5817 56.3128 81.732 55.5314 81.732C54.7501 81.732 54.0999 81.5713 53.565 81.2551C53.0302 80.9338 52.5949 80.514 52.2593 79.9853C51.9237 79.4567 51.6668 78.8658 51.4885 78.218C51.3102 77.565 51.1896 76.8964 51.1319 76.2122C51.0742 75.5281 51.048 74.8802 51.0533 74.2687C51.0585 73.6571 51.0795 73.1233 51.1109 72.6672C51.1424 72.2111 51.1686 71.8846 51.1791 71.6928C51.2053 71.3559 51.305 71.0968 51.478 70.9205C51.6511 70.7443 51.8451 70.6251 52.0601 70.5577C52.2751 70.4904 52.553 70.4541 52.8781 70.4385C53.2189 70.48 53.5021 70.5474 53.7171 70.6459Z" fill="#40437C"/>
<path d="M64.6976 79.0006C64.6976 79.0006 64.8287 79.0006 65.0541 78.9902C65.2796 78.9851 65.5575 78.9799 65.8827 78.9695C66.213 78.9643 66.5381 78.954 66.8632 78.9488C67.1884 78.9436 67.5711 78.9332 68.0221 78.9177C68.3105 78.9177 68.557 78.9384 68.7562 78.9851C68.9555 79.0317 69.1285 79.125 69.2806 79.2701C69.4327 79.4152 69.5166 79.6329 69.5271 79.9335C69.5376 80.2186 69.4589 80.4466 69.2806 80.6073C69.1023 80.7731 68.8926 80.882 68.6461 80.939C68.3997 80.996 68.0903 81.0427 67.7075 81.0686C67.1674 81.11 66.6797 81.1515 66.2445 81.2033C65.8092 81.2551 65.3321 81.3225 64.8182 81.4106C64.3043 81.4936 63.8114 81.6024 63.3342 81.732C62.857 81.8615 62.469 81.9134 62.1596 81.8771C61.8502 81.846 61.609 81.7734 61.4359 81.6594C61.2629 81.5506 61.1423 81.4314 61.0689 81.307C60.9955 81.1826 60.9588 81.0997 60.9588 81.0634C60.943 80.9701 60.9692 80.8561 61.0374 80.7213C61.1056 80.5866 61.2262 80.4881 61.415 80.4363C61.4779 80.4259 61.5146 80.2393 61.5146 79.8817C61.5146 79.5241 61.4936 79.0628 61.4464 78.4927C61.3992 77.9278 61.3363 77.311 61.2577 76.6476C61.179 75.9842 61.0899 75.326 60.9902 74.6729C60.8906 74.0199 60.7962 73.4394 60.7018 72.9315C60.6074 72.4236 60.5183 72.0452 60.4239 71.7965C60.2928 71.4181 60.2771 71.1279 60.3819 70.9154C60.4868 70.7081 60.6336 70.5526 60.8277 70.4541C61.0164 70.3556 61.2786 70.2831 61.609 70.2312C61.9656 70.1898 62.2645 70.195 62.5109 70.2416C62.7521 70.2883 62.9881 70.3971 63.2031 70.5733C63.4233 70.7495 63.5754 71.0398 63.6698 71.444C63.7904 71.9779 63.932 72.605 64.0945 73.3306C64.2571 74.0562 64.4039 74.8854 64.5298 75.8235C64.6556 76.7616 64.7133 77.8189 64.6976 78.9902V79.0006Z" fill="#40437C"/>
<path d="M23.2404 55.3979L22.5797 56.2013C22.931 56.4812 23.2718 56.7248 23.6127 56.9528L22.522 58.0982L23.2876 58.8083L24.5303 57.5022C24.7663 57.6266 24.997 57.7406 25.2225 57.8391L24.0532 58.9793L24.7873 59.7153L26.3027 58.2381C27.084 58.4662 27.8287 58.5699 28.5208 58.5699C31.9817 58.5699 34.2523 56.1909 34.2837 56.1546L33.5129 55.455C33.3346 55.6467 29.0505 60.0936 23.2351 55.4031L23.2404 55.3979Z" fill="#40437C"/>
<path d="M50.7177 58.7253L51.4833 58.0153L50.3979 56.875C50.7387 56.6522 51.0848 56.4086 51.4361 56.1235L50.7754 55.3202C44.9653 60.0107 40.6812 55.5638 40.4976 55.372L39.7268 56.0717C39.7583 56.108 42.0288 58.4869 45.4897 58.4869C46.1819 58.4869 46.9265 58.3832 47.7078 58.1552L49.218 59.6323L49.9574 58.8963L48.7933 57.7561C49.0188 57.6577 49.2495 57.5436 49.4855 57.4192L50.7282 58.7201L50.7177 58.7253Z" fill="#40437C"/>
</g>
<defs>
<clipPath id="clip0_219_586">
<rect width="74" height="82" fill="white"/>
</clipPath>
</defs>
</svg>
