<?xml version="1.0" encoding="UTF-8"?><svg id="Layer_1" xmlns="http://www.w3.org/2000/svg" width="49.78mm" height="55.81mm" viewBox="0 0 141.12 158.2"><path d="m70.56,0C31.59,0,0,31.59,0,70.56c0,10.87,2.52,21.69,7.37,31.42,2.37,4.75,5.28,9.23,8.65,13.33,1.68,2.04,3.48,3.97,5.37,5.83.36.36.69.65,1.01.88,7.55-19.32,25.6-33.35,47.13-35.08,0-.38,0-.72,0-1,.06-3.32.08-6.66-.22-9.96-.14-1.58-.15-4.16-1.33-5.41-5.99-6.38-4.32,6.59-27.6,5.92-17.77-.51-30.26-14.3-30.26-14.3,0,0,9.64-8.31,29.93-6.98,18.68,1.22,30.53,8.65,30.53,8.65,0,0,.39-28.27,20.68-34.25,20.28-5.99,23.61-4.66,23.61-4.66,0,0-1.33,17.96-11.97,26.27-10.64,8.31-26.94,14.63-26.94,14.63,0,0-2.33.67-1,9.31.58,3.8.52,7.73.31,11.61,18.53.41,36.75,10.41,44.02,33.75,3.24-.8,21.85-18.06,21.85-49.96C141.12,31.59,109.53,0,70.56,0Z" fill="#231f20"/><path d="m10.16,157.32c-.47-.25-.77-.54-.92-.87-.15-.33-.23-.74-.23-1.25l-.45-16.37c-.05-.5-.01-.92.11-1.26.12-.34.39-.64.79-.91.4-.26,1.03-.4,1.89-.4,1.13-.02,1.99.13,2.56.47s1.06.85,1.43,1.53l4.34,7.88c.43-.93.8-1.75,1.11-2.45s.63-1.42.96-2.15c.33-.73.62-1.36.87-1.9.25-.54.42-.89.49-1.04.13-.25.35-.6.68-1.04.33-.44.8-.85,1.41-1.23.62-.38,1.43-.58,2.43-.6.75-.03,1.33.06,1.74.25.4.19.68.41.85.66.16.25.27.58.32.98,0,1.28,0,2.45.02,3.51s.02,2.21.02,3.47v3.79c0,1.27,0,2.43.02,3.49.01,1.06.02,1.91.02,2.56v1.02s0,.15-.02.38c-.01.23-.11.48-.28.77-.18.29-.48.54-.92.75-.44.21-1.09.32-1.94.32s-1.5-.09-1.94-.28-.75-.4-.92-.64-.29-.53-.34-.89c0-.88,0-1.65.02-2.32.01-.67.02-1.33.04-2s.02-1.45.02-2.36l.3-5.39-1.96,4.19c-.28.55-.6.97-.98,1.25-.38.28-.94.43-1.7.45-.73.03-1.3-.08-1.72-.32-.42-.24-.79-.6-1.11-1.08l-2.45-4.49c.08,1.18.14,2.24.19,3.19.05.94.1,1.94.15,2.98.05,1.04.09,2.02.13,2.94s.07,1.65.09,2.21c.02.68-.11,1.2-.42,1.57s-.65.62-1.06.75c-.4.14-.92.22-1.55.25-.93,0-1.63-.13-2.09-.38Z" fill="#231f20"/><path d="m33.37,152.55c-.03-1.29-.04-2.68-.04-4.17s.02-2.92.06-4.32c.04-1.4.08-2.63.13-3.71.05-1.08.1-1.86.15-2.34.08-.6.29-1.06.64-1.38.35-.31.75-.53,1.19-.66.44-.12.97-.2,1.6-.23.63.08,1.13.16,1.51.26s.64.28.79.53c.33.5.48.99.47,1.45-.01.47-.04,1.06-.09,1.79-.15,1.89-.24,3.73-.26,5.54-.03,1.81-.03,3.46,0,4.94.02,1.48.08,3.11.15,4.87-.03.53-.11.96-.26,1.28-.15.33-.44.62-.87.89-.43.26-1.06.4-1.89.4s-1.46-.09-1.9-.28c-.44-.19-.74-.41-.91-.68-.16-.26-.27-.58-.32-.96-.08-.85-.13-1.93-.15-3.22Z" fill="#231f20"/><path d="m45.91,157.38c-.46-.21-.79-.46-.98-.75-.19-.29-.3-.65-.32-1.07-.15-1.51-.29-2.86-.42-4.05-.13-1.19-.26-2.48-.4-3.85-.14-1.37-.28-2.69-.42-3.96-.14-1.27-.25-2.35-.32-3.24-.08-.89-.13-1.45-.15-1.68-.03-.65.12-1.23.43-1.72s1.09-.77,2.32-.85c.83-.05,1.5.08,2,.38s.98.77,1.43,1.4l3.54,8.6,1.39,2.6-.87-7.17c.03-1.66.08-3.07.15-4.22.05-.58.24-1.02.57-1.32.33-.3.7-.51,1.11-.64s.94-.2,1.57-.23c.58.05,1.06.17,1.43.36s.71.52,1,.98c.29.47.42,1.14.4,2.02-.03,1.08.01,2.31.11,3.68.1,1.37.23,2.77.4,4.21.16,1.43.33,2.77.49,4.02.16,1.24.31,2.28.45,3.11.14.83.22,1.34.25,1.55.05.3.06.67.04,1.09-.03.43-.22.8-.58,1.13-.37.33-1.04.5-2.02.53-.98,0-1.71-.11-2.19-.34-.48-.23-.88-.58-1.21-1.06l-5.66-10.14c.2,1.01.37,1.91.51,2.72.14.8.28,1.67.42,2.6.14.93.25,1.82.32,2.68.08.86-.02,1.49-.28,1.9-.26.42-.59.7-.98.85-.39.15-.89.23-1.49.23-.91,0-1.59-.11-2.06-.32Z" fill="#231f20"/><path d="m64.1,150.59c-.13-1.62-.25-3.17-.36-4.66-.11-1.48-.21-2.75-.28-3.79-.08-1.04-.14-1.72-.19-2.02-.08-.58.02-1.08.3-1.51-.35-.38-.53-.68-.53-.91,0-.4.25-.73.74-.98s1.05-.44,1.68-.57c.63-.12,1.43-.24,2.41-.34,1-.05,1.9-.04,2.7.04.79.08,1.65.27,2.56.58.92.31,1.8.81,2.64,1.49.84.68,1.55,1.6,2.13,2.77s.93,2.66,1.06,4.47c.15,2.14.06,3.93-.28,5.39-.34,1.46-.84,2.65-1.51,3.56s-1.43,1.63-2.28,2.13c-.86.5-1.74.85-2.66,1.04-.92.19-1.79.3-2.6.34-.82.04-1.53.06-2.13.06-.88,0-1.54-.13-1.98-.38s-.73-.53-.87-.85c-.14-.31-.21-.72-.21-1.23-.1-1.48-.21-3.04-.34-4.66Zm4.38-11.37l1.66,15.27c.45-.05.85-.18,1.19-.38.34-.2.67-.57.98-1.09.31-.53.56-1.28.74-2.24s.21-2.23.11-3.79c-.1-1.96-.31-3.49-.62-4.58s-.69-1.88-1.13-2.36c-.44-.48-.91-.75-1.42-.83-.5-.08-1.01-.08-1.51,0Z" fill="#231f20"/><path d="m84.71,157.4c-.47-.2-.79-.43-.96-.68-.18-.25-.29-.58-.34-.98-.23-1.38-.43-2.63-.6-3.73-.18-1.11-.37-2.31-.58-3.6-.21-1.29-.42-2.55-.6-3.77-.19-1.22-.36-2.29-.51-3.21-.15-.92-.26-1.54-.34-1.87-.1-.5-.07-.91.09-1.23.16-.31.38-.55.64-.72.26-.16.61-.31,1.04-.43,1.28-.23,2.4-.43,3.36-.6.96-.18,1.94-.34,2.94-.51,1.01-.16,1.89-.29,2.64-.4.75-.1,1.34-.07,1.77.09.43.16.74.37.94.62.2.25.35.59.45,1.02.13.8.23,1.48.3,2.02.08.54.13,1.05.15,1.53.05.7-.11,1.28-.49,1.73-.38.45-1.19.74-2.45.87-.83.08-1.42-.01-1.77-.26-.35-.25-.59-.65-.72-1.21l-.23-2.49-2.38.23,1.32,6.49c.65,0,1.19.03,1.62.09.43.06.82.2,1.17.4.35.2.57.52.64.94.08.4-.03.73-.32.98-.29.25-.63.43-1.02.53s-.9.19-1.53.26c.3,2.14.54,3.99.72,5.54.1.78,0,1.36-.28,1.73s-.64.63-1.06.75-.96.17-1.64.15c-.85,0-1.51-.1-1.98-.3Z" fill="#231f20"/><path d="m102.44,136.3c.42.19.77.52,1.08.98s.43,1.14.38,2.02c-.03.58-.06,1.35-.09,2.32-.04.97-.06,2.02-.06,3.17s.03,2.28.09,3.41c.06,1.13.18,2.18.34,3.13.16.96.39,1.72.68,2.28s.65.84,1.08.81c.45-.02.79-.33,1.02-.92.23-.59.38-1.34.45-2.26.08-.92.1-1.89.08-2.92-.03-1.03-.08-2.02-.15-2.96-.08-.94-.14-1.72-.21-2.34-.06-.62-.11-.96-.13-1.04-.03-.1-.06-.31-.11-.64-.05-.33-.03-.68.08-1.06s.36-.72.77-1.02,1.07-.49,1.98-.57,1.61.04,2.11.34.86.67,1.07,1.09c.21.43.36.97.43,1.62.17,1.16.29,2.21.36,3.15.06.94.06,1.98,0,3.11-.06,1.13-.23,2.27-.49,3.41-.26,1.14-.68,2.19-1.26,3.13-.58.94-1.36,1.7-2.34,2.28s-2.21.87-3.7.87-2.73-.31-3.75-.92c-1.02-.62-1.85-1.43-2.49-2.45-.64-1.02-1.13-2.16-1.47-3.41-.34-1.26-.57-2.55-.68-3.87-.11-1.32-.16-2.57-.15-3.75.01-1.18.05-2.21.11-3.09.06-.88.11-1.51.13-1.88.05-.65.24-1.15.57-1.49.33-.34.7-.57,1.11-.7.41-.13.94-.2,1.56-.23.65.08,1.19.21,1.6.4Z" fill="#231f20"/><path d="m123.38,152.42s.25,0,.68-.02c.43-.01.96-.02,1.58-.04.63-.01,1.25-.03,1.87-.04s1.35-.03,2.21-.06c.55,0,1.02.04,1.4.13.38.09.71.27,1,.55.29.28.45.7.47,1.28.02.55-.13.99-.47,1.3-.34.32-.74.53-1.21.64-.47.11-1.06.2-1.79.25-1.03.08-1.96.16-2.79.26-.83.1-1.74.23-2.72.4-.98.16-1.92.37-2.83.62s-1.65.35-2.24.28c-.59-.06-1.05-.2-1.38-.42-.33-.21-.56-.44-.7-.68-.14-.24-.21-.4-.21-.47-.03-.18.02-.4.15-.66.13-.26.36-.45.72-.55.12-.02.19-.38.19-1.07s-.04-1.58-.13-2.68c-.09-1.09-.21-2.28-.36-3.56s-.32-2.55-.51-3.81c-.19-1.26-.37-2.38-.55-3.36-.18-.98-.35-1.71-.53-2.19-.25-.73-.28-1.29-.08-1.7.2-.4.48-.7.85-.89.36-.19.86-.33,1.49-.43.68-.08,1.25-.07,1.72.02.46.09.91.3,1.32.64.42.34.71.9.89,1.68.23,1.03.5,2.24.81,3.64.31,1.4.59,3,.83,4.81.24,1.81.35,3.85.32,6.11Z" fill="#231f20"/><path d="m44.32,106.88l-1.26,1.55c.67.54,1.32,1.01,1.97,1.45l-2.08,2.21,1.46,1.37,2.37-2.52c.45.24.89.46,1.32.65l-2.23,2.2,1.4,1.42,2.89-2.85c1.49.44,2.91.64,4.23.64,6.6,0,10.93-4.59,10.99-4.66l-1.47-1.35c-.34.37-8.51,8.95-19.6-.1Z" fill="#231f20"/><path d="m96.72,113.3l1.46-1.37-2.07-2.2c.65-.43,1.31-.9,1.98-1.45l-1.26-1.55c-11.08,9.05-19.25.47-19.6.1l-1.47,1.35c.06.07,4.39,4.66,10.99,4.66,1.32,0,2.74-.2,4.23-.64l2.88,2.85,1.41-1.42-2.22-2.2c.43-.19.87-.41,1.32-.65l2.37,2.51Z" fill="#231f20"/></svg>