<svg width="75" height="64" viewBox="0 0 75 64" fill="none" xmlns="http://www.w3.org/2000/svg">
<g clip-path="url(#clip0_219_620)">
<path d="M37 0.00354004C16.5651 0.00354004 0 16.3761 0 36.5737C0 42.2074 1.32143 47.8153 3.86465 52.8582C5.10743 55.32 6.63336 57.642 8.40051 59.7669C9.28146 60.8242 10.2253 61.8245 11.2164 62.7885C11.4052 62.9751 11.5782 63.1254 11.746 63.2446C15.7051 53.2314 25.1701 45.9598 36.4599 45.0632C36.4599 44.8662 36.4599 44.69 36.4599 44.5449C36.4914 42.8242 36.5018 41.0931 36.3445 39.3828C36.2711 38.5639 36.2659 37.2267 35.6471 36.5789C32.5061 33.2722 33.3818 39.9944 21.1743 39.6471C11.8562 39.3828 5.30669 32.2356 5.30669 32.2356C5.30669 32.2356 10.3617 27.9287 21.0013 28.618C30.7966 29.2503 37.0105 33.1012 37.0105 33.1012C37.0105 33.1012 37.215 18.4493 47.8546 15.3499C58.489 12.2454 60.2351 12.9347 60.2351 12.9347C60.2351 12.9347 59.5377 22.2431 53.9583 26.5501C48.379 30.857 39.8316 34.1326 39.8316 34.1326C39.8316 34.1326 38.6098 34.4798 39.3073 38.9578C39.6114 40.9273 39.5799 42.9641 39.4698 44.9751C49.1865 45.1876 58.7407 50.3704 62.5529 62.4672C64.2518 62.0526 74.0105 53.107 74.0105 36.5737C74 16.3761 57.435 0.00354004 37 0.00354004Z" fill="#40437C"/>
<path d="M23.2404 55.3979L22.5797 56.2013C22.931 56.4812 23.2718 56.7248 23.6127 56.9528L22.522 58.0982L23.2876 58.8083L24.5303 57.5022C24.7663 57.6266 24.997 57.7406 25.2225 57.8391L24.0532 58.9793L24.7873 59.7153L26.3027 58.2381C27.084 58.4662 27.8287 58.5699 28.5208 58.5699C31.9817 58.5699 34.2523 56.1909 34.2837 56.1546L33.5129 55.455C33.3346 55.6467 29.0505 60.0936 23.2351 55.4031L23.2404 55.3979Z" fill="#40437C"/>
<path d="M50.7177 58.7253L51.4833 58.0153L50.3979 56.875C50.7387 56.6522 51.0848 56.4086 51.4361 56.1235L50.7754 55.3202C44.9653 60.0107 40.6812 55.5638 40.4976 55.372L39.7268 56.0717C39.7583 56.108 42.0288 58.4869 45.4897 58.4869C46.1819 58.4869 46.9265 58.3832 47.7078 58.1552L49.218 59.6323L49.9574 58.8963L48.7933 57.7561C49.0188 57.6577 49.2495 57.5436 49.4855 57.4192L50.7282 58.7201L50.7177 58.7253Z" fill="#40437C"/>
</g>
<defs>
<clipPath id="clip0_219_620">
<rect width="75" height="64" fill="white"/>
</clipPath>
</defs>
</svg>
